<svg width="361" height="262" viewBox="0 0 361 262" fill="none" xmlns="http://www.w3.org/2000/svg">
<path d="M180.149 26.5797C180.592 26.5797 180.891 26.6667 180.919 26.6757L207.118 41.7958C207.436 42.0283 207.898 42.8262 207.938 43.1651L207.94 73.4189C207.901 73.8104 207.439 74.6052 207.168 74.8077L180.961 89.9368C180.894 89.9683 180.594 90.0553 180.149 90.0553C179.702 90.0553 179.402 89.9668 179.376 89.9593L153.178 74.8377C152.86 74.6052 152.399 73.8089 152.359 73.4699L152.357 43.2176C152.401 42.8262 152.861 42.0298 153.131 41.8273L179.331 26.6982C179.402 26.6667 179.702 26.5797 180.149 26.5797ZM180.149 20.5808C178.781 20.5808 177.413 20.8808 176.375 21.4806L150.13 36.6323C148.058 37.8321 146.36 40.77 146.36 43.1651V73.4714C146.36 75.8665 148.058 78.8044 150.13 80.0042L176.375 95.1574C177.413 95.7558 178.781 96.0572 180.147 96.0572C181.513 96.0572 182.88 95.7588 183.916 95.1574L210.167 80.0042C212.243 78.8044 213.937 75.8665 213.937 73.4714V43.1636C213.937 40.7685 212.238 37.8306 210.167 36.6308L183.916 21.4806C182.883 20.8808 181.515 20.5808 180.149 20.5808ZM202.871 42.1663L183.094 30.9799C181.533 30.0935 178.97 30.0935 177.407 30.9799L157.63 42.1663C156.068 43.0526 154.788 45.2212 154.788 46.9894V69.3667C154.788 71.1334 156.069 73.3035 157.63 74.1898L177.409 85.3747C178.973 86.261 181.527 86.261 183.094 85.3747L202.872 74.1898C204.437 73.3035 205.716 71.1334 205.716 69.3667V46.9894C205.713 45.2212 204.432 43.0526 202.871 42.1663ZM218.325 92.8163C218.768 92.8163 219.066 92.9033 219.096 92.9123L245.295 108.028C245.614 108.262 246.076 109.06 246.117 109.399L246.118 139.656C246.078 140.045 245.617 140.84 245.344 141.044L219.137 156.173C219.068 156.203 218.771 156.292 218.322 156.292C217.876 156.292 217.579 156.203 217.55 156.199L191.353 141.076C191.034 140.845 190.572 140.045 190.533 139.708L190.531 109.456C190.573 109.061 191.035 108.263 191.305 108.062L217.508 92.9363C217.579 92.9048 217.877 92.8163 218.325 92.8163ZM218.325 86.8174C216.958 86.8174 215.59 87.1174 214.551 87.7173L188.304 102.867C186.233 104.069 184.534 107.007 184.534 109.399V139.707C184.534 142.1 186.233 145.04 188.304 146.236L214.551 161.391C215.588 161.989 216.956 162.291 218.322 162.291C219.69 162.291 221.055 161.992 222.096 161.391L248.344 146.238C250.421 145.038 252.116 142.099 252.116 139.708V109.399C252.116 107.004 250.416 104.066 248.344 102.867L222.091 87.7173C221.058 87.1174 219.692 86.8174 218.325 86.8174ZM241.046 108.403L221.268 97.2165C219.707 96.3287 217.144 96.3287 215.582 97.2165L195.804 108.403C194.241 109.288 192.961 111.458 192.961 113.226V135.603C192.961 137.37 194.241 139.54 195.804 140.426L215.582 151.611C217.147 152.499 219.701 152.499 221.268 151.611L241.046 140.426C242.61 139.54 243.888 137.37 243.888 135.603V113.226C243.888 111.458 242.607 109.288 241.046 108.403ZM141.838 92.8163C142.282 92.8163 142.581 92.9033 142.609 92.9123L168.806 108.028C169.126 108.262 169.588 109.06 169.628 109.399L169.63 139.656C169.588 140.045 169.129 140.84 168.857 141.044L142.651 156.173C142.582 156.203 142.284 156.292 141.837 156.292C141.39 156.292 141.09 156.203 141.064 156.199L114.867 141.076C114.549 140.845 114.089 140.045 114.048 139.708L114.045 109.456C114.089 109.061 114.549 108.266 114.818 108.062L141.021 92.9363C141.091 92.9048 141.39 92.8163 141.838 92.8163ZM141.838 86.8174C140.47 86.8174 139.103 87.1174 138.065 87.7173L111.82 102.867C109.747 104.069 108.05 107.007 108.05 109.399V139.707C108.05 142.1 109.747 145.04 111.82 146.236L138.065 161.389C139.103 161.988 140.47 162.289 141.837 162.289C143.203 162.289 144.569 161.991 145.607 161.389L171.857 146.236C173.932 145.037 175.627 142.097 175.627 139.707V109.399C175.627 107.004 173.928 104.066 171.857 102.867L145.607 87.7173C144.572 87.1174 143.206 86.8174 141.838 86.8174ZM164.56 108.403L144.782 97.2165C143.221 96.3287 140.659 96.3287 139.098 97.2165L119.32 108.403C117.757 109.288 116.478 111.458 116.478 113.226V135.603C116.478 137.37 117.759 139.54 119.32 140.426L139.098 151.611C140.662 152.499 143.216 152.499 144.782 151.611L164.56 140.426C166.125 139.54 167.402 137.37 167.402 135.603V113.226C167.402 111.458 166.122 109.288 164.56 108.403Z" fill="#5782BB"/>
<path d="M59.4863 221V181.01H92.5625V221H80.6387V189.594H71.4102V221H59.4863ZM125.166 221L122.911 213.119H112.188L109.786 221H99.8246L112.188 181.01H125.166L137.676 221H125.166ZM114.268 204.389H120.772L117.52 192.787L114.268 204.389ZM178.893 181.01V221H166.618V205.443H157.243V221H144.968V181.01H157.243V195.717H166.618V181.01H178.893ZM219.554 211.449V221H189.466V181.01H219.554V190.238H201.507V196.039H216.097V204.916H201.507V211.449H219.554ZM232.968 221H223.154L235.81 181.01H248.847L261.269 221H249.14L241.142 192.582L232.968 221ZM279.078 216.781V221H267.154V181.01H279.078V197.064C279.078 199.193 278.961 201.732 278.727 204.682C280.191 201.479 281.646 198.637 283.092 196.156L289.42 185.287V181.01H301.344V221H289.42V205.092C289.42 202.807 289.527 200.277 289.742 197.504C288.57 200.199 287.115 203.031 285.377 206L279.078 216.781Z" fill="#213341"/>
<path d="M59.696 242.402C59.696 242.534 59.6887 242.725 59.674 242.974C59.674 243.209 59.6667 243.465 59.652 243.744C59.6373 244.008 59.6227 244.265 59.608 244.514C59.5933 244.749 59.5787 244.939 59.564 245.086L65.878 235.208H68.254V247H66.45V240.048C66.45 239.813 66.45 239.505 66.45 239.124C66.4647 238.743 66.4793 238.369 66.494 238.002C66.5087 237.621 66.5233 237.335 66.538 237.144L60.268 247H57.87V235.208H59.696V242.402ZM76.6487 234.988C77.5434 234.988 78.3207 235.113 78.9807 235.362C79.6407 235.597 80.1541 235.949 80.5207 236.418C80.8874 236.873 81.0707 237.43 81.0707 238.09C81.0707 238.809 80.8727 239.381 80.4767 239.806C80.0807 240.217 79.5381 240.517 78.8487 240.708V240.796C79.3181 240.928 79.7507 241.111 80.1467 241.346C80.5427 241.581 80.8581 241.889 81.0927 242.27C81.3421 242.651 81.4667 243.143 81.4667 243.744C81.4667 244.389 81.2834 244.976 80.9167 245.504C80.5647 246.032 80.0147 246.45 79.2667 246.758C78.5334 247.066 77.5874 247.22 76.4287 247.22C75.8714 247.22 75.3361 247.191 74.8227 247.132C74.3241 247.073 73.8694 246.985 73.4587 246.868C73.0627 246.751 72.7107 246.611 72.4027 246.45V244.712C72.9014 244.947 73.4881 245.159 74.1627 245.35C74.8521 245.541 75.6001 245.636 76.4067 245.636C76.9934 245.636 77.5214 245.57 77.9907 245.438C78.4747 245.306 78.8561 245.101 79.1347 244.822C79.4134 244.529 79.5527 244.133 79.5527 243.634C79.5527 243.179 79.4281 242.813 79.1787 242.534C78.9294 242.241 78.5554 242.021 78.0567 241.874C77.5727 241.727 76.9494 241.654 76.1867 241.654H74.6027V240.07H75.8787C76.8907 240.07 77.6974 239.938 78.2987 239.674C78.9147 239.395 79.2227 238.926 79.2227 238.266C79.2227 237.709 78.9881 237.291 78.5187 237.012C78.0641 236.733 77.4041 236.594 76.5387 236.594C75.8934 236.594 75.3214 236.66 74.8227 236.792C74.3387 236.909 73.8034 237.093 73.2167 237.342L72.5347 235.802C73.1654 235.523 73.8254 235.318 74.5147 235.186C75.2041 235.054 75.9154 234.988 76.6487 234.988ZM97.6419 247.22C96.6005 247.22 95.6692 247.007 94.8479 246.582C94.0412 246.157 93.4032 245.497 92.9339 244.602C92.4792 243.707 92.2519 242.563 92.2519 241.17C92.2519 239.718 92.4939 238.537 92.9779 237.628C93.4619 236.719 94.1145 236.051 94.9359 235.626C95.7719 235.201 96.7179 234.988 97.7739 234.988C98.3752 234.988 98.9545 235.054 99.5119 235.186C100.069 235.303 100.524 235.45 100.876 235.626L100.282 237.232C99.9299 237.1 99.5192 236.975 99.0499 236.858C98.5805 236.741 98.1405 236.682 97.7299 236.682C96.9379 236.682 96.2852 236.851 95.7719 237.188C95.2585 237.525 94.8772 238.024 94.6279 238.684C94.3785 239.344 94.2539 240.165 94.2539 241.148C94.2539 242.087 94.3785 242.886 94.6279 243.546C94.8772 244.206 95.2512 244.705 95.7499 245.042C96.2485 245.379 96.8719 245.548 97.6199 245.548C98.2652 245.548 98.8299 245.482 99.3139 245.35C99.8125 245.218 100.267 245.057 100.678 244.866V246.582C100.282 246.787 99.8419 246.941 99.3579 247.044C98.8885 247.161 98.3165 247.22 97.6419 247.22ZM115.274 241.082C115.274 242.065 115.142 242.937 114.878 243.7C114.629 244.448 114.262 245.086 113.778 245.614C113.309 246.142 112.73 246.545 112.04 246.824C111.366 247.088 110.61 247.22 109.774 247.22C108.997 247.22 108.278 247.088 107.618 246.824C106.958 246.545 106.386 246.142 105.902 245.614C105.418 245.086 105.037 244.448 104.758 243.7C104.494 242.937 104.362 242.065 104.362 241.082C104.362 239.777 104.582 238.677 105.022 237.782C105.462 236.873 106.093 236.183 106.914 235.714C107.736 235.23 108.711 234.988 109.84 234.988C110.911 234.988 111.85 235.23 112.656 235.714C113.478 236.183 114.116 236.873 114.57 237.782C115.04 238.677 115.274 239.777 115.274 241.082ZM106.364 241.082C106.364 242.006 106.482 242.813 106.716 243.502C106.966 244.177 107.347 244.697 107.86 245.064C108.374 245.431 109.026 245.614 109.818 245.614C110.61 245.614 111.263 245.431 111.776 245.064C112.29 244.697 112.664 244.177 112.898 243.502C113.148 242.813 113.272 242.006 113.272 241.082C113.272 240.143 113.148 239.344 112.898 238.684C112.649 238.024 112.268 237.518 111.754 237.166C111.256 236.799 110.603 236.616 109.796 236.616C108.594 236.616 107.721 237.012 107.178 237.804C106.636 238.596 106.364 239.689 106.364 241.082ZM127.808 236.836H123.958V247H122.044V236.836H118.238V235.208H127.808V236.836ZM141.708 241.082C141.708 242.065 141.576 242.937 141.312 243.7C141.062 244.448 140.696 245.086 140.212 245.614C139.742 246.142 139.163 246.545 138.474 246.824C137.799 247.088 137.044 247.22 136.208 247.22C135.43 247.22 134.712 247.088 134.052 246.824C133.392 246.545 132.82 246.142 132.336 245.614C131.852 245.086 131.47 244.448 131.192 243.7C130.928 242.937 130.796 242.065 130.796 241.082C130.796 239.777 131.016 238.677 131.456 237.782C131.896 236.873 132.526 236.183 133.348 235.714C134.169 235.23 135.144 234.988 136.274 234.988C137.344 234.988 138.283 235.23 139.09 235.714C139.911 236.183 140.549 236.873 141.004 237.782C141.473 238.677 141.708 239.777 141.708 241.082ZM132.798 241.082C132.798 242.006 132.915 242.813 133.15 243.502C133.399 244.177 133.78 244.697 134.294 245.064C134.807 245.431 135.46 245.614 136.252 245.614C137.044 245.614 137.696 245.431 138.21 245.064C138.723 244.697 139.097 244.177 139.332 243.502C139.581 242.813 139.706 242.006 139.706 241.082C139.706 240.143 139.581 239.344 139.332 238.684C139.082 238.024 138.701 237.518 138.188 237.166C137.689 236.799 137.036 236.616 136.23 236.616C135.027 236.616 134.154 237.012 133.612 237.804C133.069 238.596 132.798 239.689 132.798 241.082ZM155.798 238.178C155.798 238.911 155.578 239.483 155.138 239.894C154.698 240.305 154.133 240.583 153.444 240.73V240.818C154.177 240.921 154.815 241.185 155.358 241.61C155.901 242.021 156.172 242.666 156.172 243.546C156.172 244.045 156.077 244.507 155.886 244.932C155.71 245.357 155.431 245.724 155.05 246.032C154.669 246.34 154.177 246.582 153.576 246.758C152.975 246.919 152.249 247 151.398 247H146.316V235.208H151.376C152.212 235.208 152.96 235.303 153.62 235.494C154.295 235.67 154.823 235.978 155.204 236.418C155.6 236.843 155.798 237.43 155.798 238.178ZM154.17 243.546C154.17 242.871 153.913 242.387 153.4 242.094C152.887 241.801 152.131 241.654 151.134 241.654H148.252V245.438H151.178C152.146 245.438 152.887 245.299 153.4 245.02C153.913 244.727 154.17 244.235 154.17 243.546ZM153.84 238.42C153.84 237.863 153.635 237.459 153.224 237.21C152.828 236.946 152.175 236.814 151.266 236.814H148.252V240.048H150.914C151.867 240.048 152.593 239.916 153.092 239.652C153.591 239.388 153.84 238.977 153.84 238.42ZM170.784 241.082C170.784 242.065 170.652 242.937 170.388 243.7C170.138 244.448 169.772 245.086 169.288 245.614C168.818 246.142 168.239 246.545 167.55 246.824C166.875 247.088 166.12 247.22 165.284 247.22C164.506 247.22 163.788 247.088 163.128 246.824C162.468 246.545 161.896 246.142 161.412 245.614C160.928 245.086 160.546 244.448 160.268 243.7C160.004 242.937 159.872 242.065 159.872 241.082C159.872 239.777 160.092 238.677 160.532 237.782C160.972 236.873 161.602 236.183 162.424 235.714C163.245 235.23 164.22 234.988 165.35 234.988C166.42 234.988 167.359 235.23 168.166 235.714C168.987 236.183 169.625 236.873 170.08 237.782C170.549 238.677 170.784 239.777 170.784 241.082ZM161.874 241.082C161.874 242.006 161.991 242.813 162.226 243.502C162.475 244.177 162.856 244.697 163.37 245.064C163.883 245.431 164.536 245.614 165.328 245.614C166.12 245.614 166.772 245.431 167.286 245.064C167.799 244.697 168.173 244.177 168.408 243.502C168.657 242.813 168.782 242.006 168.782 241.082C168.782 240.143 168.657 239.344 168.408 238.684C168.158 238.024 167.777 237.518 167.264 237.166C166.765 236.799 166.112 236.616 165.306 236.616C164.103 236.616 163.23 237.012 162.688 237.804C162.145 238.596 161.874 239.689 161.874 241.082ZM182.586 235.208V236.836H177.328V247H175.392V235.208H182.586ZM196.487 241.082C196.487 242.065 196.355 242.937 196.091 243.7C195.842 244.448 195.475 245.086 194.991 245.614C194.522 246.142 193.942 246.545 193.253 246.824C192.578 247.088 191.823 247.22 190.987 247.22C190.21 247.22 189.491 247.088 188.831 246.824C188.171 246.545 187.599 246.142 187.115 245.614C186.631 245.086 186.25 244.448 185.971 243.7C185.707 242.937 185.575 242.065 185.575 241.082C185.575 239.777 185.795 238.677 186.235 237.782C186.675 236.873 187.306 236.183 188.127 235.714C188.948 235.23 189.924 234.988 191.053 234.988C192.124 234.988 193.062 235.23 193.869 235.714C194.69 236.183 195.328 236.873 195.783 237.782C196.252 238.677 196.487 239.777 196.487 241.082ZM187.577 241.082C187.577 242.006 187.694 242.813 187.929 243.502C188.178 244.177 188.56 244.697 189.073 245.064C189.586 245.431 190.239 245.614 191.031 245.614C191.823 245.614 192.476 245.431 192.989 245.064C193.502 244.697 193.876 244.177 194.111 243.502C194.36 242.813 194.485 242.006 194.485 241.082C194.485 240.143 194.36 239.344 194.111 238.684C193.862 238.024 193.48 237.518 192.967 237.166C192.468 236.799 191.816 236.616 191.009 236.616C189.806 236.616 188.934 237.012 188.391 237.804C187.848 238.596 187.577 239.689 187.577 241.082ZM215.109 235.208H217.221L212.183 240.884L217.639 247H215.395L210.071 241.016V247H208.135V235.208H210.071V240.928L215.109 235.208ZM225.786 235.01C227.223 235.01 228.286 235.325 228.976 235.956C229.665 236.587 230.01 237.591 230.01 238.97V247H228.602L228.228 245.328H228.14C227.802 245.753 227.45 246.113 227.084 246.406C226.732 246.685 226.321 246.89 225.852 247.022C225.397 247.154 224.84 247.22 224.18 247.22C223.476 247.22 222.838 247.095 222.266 246.846C221.708 246.597 221.268 246.215 220.946 245.702C220.623 245.174 220.462 244.514 220.462 243.722C220.462 242.549 220.924 241.647 221.848 241.016C222.772 240.371 224.194 240.019 226.116 239.96L228.118 239.894V239.19C228.118 238.207 227.905 237.525 227.48 237.144C227.054 236.763 226.453 236.572 225.676 236.572C225.06 236.572 224.473 236.667 223.916 236.858C223.358 237.034 222.838 237.239 222.354 237.474L221.76 236.022C222.273 235.743 222.882 235.509 223.586 235.318C224.29 235.113 225.023 235.01 225.786 235.01ZM226.358 241.302C224.891 241.361 223.872 241.595 223.3 242.006C222.742 242.417 222.464 242.996 222.464 243.744C222.464 244.404 222.662 244.888 223.058 245.196C223.468 245.504 223.989 245.658 224.62 245.658C225.617 245.658 226.446 245.387 227.106 244.844C227.766 244.287 228.096 243.436 228.096 242.292V241.236L226.358 241.302ZM240.802 234.988C242.254 234.988 243.42 235.494 244.3 236.506C245.194 237.518 245.642 239.043 245.642 241.082C245.642 242.417 245.436 243.546 245.026 244.47C244.63 245.379 244.065 246.069 243.332 246.538C242.613 246.993 241.762 247.22 240.78 247.22C240.178 247.22 239.643 247.139 239.174 246.978C238.704 246.817 238.301 246.611 237.964 246.362C237.641 246.098 237.362 245.812 237.128 245.504H236.996C237.025 245.753 237.054 246.069 237.084 246.45C237.113 246.831 237.128 247.161 237.128 247.44V252.28H235.192V235.208H236.776L237.04 236.814H237.128C237.362 236.477 237.641 236.169 237.964 235.89C238.301 235.611 238.697 235.391 239.152 235.23C239.621 235.069 240.171 234.988 240.802 234.988ZM240.45 236.616C239.658 236.616 239.02 236.77 238.536 237.078C238.052 237.371 237.7 237.819 237.48 238.42C237.26 239.021 237.142 239.784 237.128 240.708V241.082C237.128 242.05 237.23 242.871 237.436 243.546C237.641 244.221 237.986 244.734 238.47 245.086C238.968 245.438 239.643 245.614 240.494 245.614C241.212 245.614 241.799 245.416 242.254 245.02C242.723 244.624 243.068 244.089 243.288 243.414C243.522 242.725 243.64 241.94 243.64 241.06C243.64 239.711 243.376 238.633 242.848 237.826C242.334 237.019 241.535 236.616 240.45 236.616ZM258.192 236.836H254.342V247H252.428V236.836H248.622V235.208H258.192V236.836ZM272.092 241.082C272.092 242.065 271.96 242.937 271.696 243.7C271.447 244.448 271.08 245.086 270.596 245.614C270.127 246.142 269.547 246.545 268.858 246.824C268.183 247.088 267.428 247.22 266.592 247.22C265.815 247.22 265.096 247.088 264.436 246.824C263.776 246.545 263.204 246.142 262.72 245.614C262.236 245.086 261.855 244.448 261.576 243.7C261.312 242.937 261.18 242.065 261.18 241.082C261.18 239.777 261.4 238.677 261.84 237.782C262.28 236.873 262.911 236.183 263.732 235.714C264.553 235.23 265.529 234.988 266.658 234.988C267.729 234.988 268.667 235.23 269.474 235.714C270.295 236.183 270.933 236.873 271.388 237.782C271.857 238.677 272.092 239.777 272.092 241.082ZM263.182 241.082C263.182 242.006 263.299 242.813 263.534 243.502C263.783 244.177 264.165 244.697 264.678 245.064C265.191 245.431 265.844 245.614 266.636 245.614C267.428 245.614 268.081 245.431 268.594 245.064C269.107 244.697 269.481 244.177 269.716 243.502C269.965 242.813 270.09 242.006 270.09 241.082C270.09 240.143 269.965 239.344 269.716 238.684C269.467 238.024 269.085 237.518 268.572 237.166C268.073 236.799 267.421 236.616 266.614 236.616C265.411 236.616 264.539 237.012 263.996 237.804C263.453 238.596 263.182 239.689 263.182 241.082ZM278.636 235.208V240.114H285.038V235.208H286.974V247H285.038V241.742H278.636V247H276.7V235.208H278.636ZM296.714 235.01C298.152 235.01 299.215 235.325 299.904 235.956C300.594 236.587 300.938 237.591 300.938 238.97V247H299.53L299.156 245.328H299.068C298.731 245.753 298.379 246.113 298.012 246.406C297.66 246.685 297.25 246.89 296.78 247.022C296.326 247.154 295.768 247.22 295.108 247.22C294.404 247.22 293.766 247.095 293.194 246.846C292.637 246.597 292.197 246.215 291.874 245.702C291.552 245.174 291.39 244.514 291.39 243.722C291.39 242.549 291.852 241.647 292.776 241.016C293.7 240.371 295.123 240.019 297.044 239.96L299.046 239.894V239.19C299.046 238.207 298.834 237.525 298.408 237.144C297.983 236.763 297.382 236.572 296.604 236.572C295.988 236.572 295.402 236.667 294.844 236.858C294.287 237.034 293.766 237.239 293.282 237.474L292.688 236.022C293.202 235.743 293.81 235.509 294.514 235.318C295.218 235.113 295.952 235.01 296.714 235.01ZM297.286 241.302C295.82 241.361 294.8 241.595 294.228 242.006C293.671 242.417 293.392 242.996 293.392 243.744C293.392 244.404 293.59 244.888 293.986 245.196C294.397 245.504 294.918 245.658 295.548 245.658C296.546 245.658 297.374 245.387 298.034 244.844C298.694 244.287 299.024 243.436 299.024 242.292V241.236L297.286 241.302Z" fill="#213341"/>
</svg>
