<svg width="36" height="36" viewBox="0 0 36 36" fill="none" xmlns="http://www.w3.org/2000/svg">
<path d="M32 6.5L18 20.5L3.65901 6.5M32 6.5C31.578 6.07804 30.7217 6 30.125 6H5.25C4.65326 6 4.08097 6.07804 3.65901 6.5M32 6.5C32.422 6.92196 32.375 7.65326 32.375 8.25V28C32.375 28.5967 32.1379 29.169 31.716 29.591C31.294 30.0129 30.7217 30.25 30.125 30.25H5.25C4.65326 30.25 4.08097 30.0129 3.65901 29.591C3.23705 29.169 3 28.5967 3 28V8.25C3 7.65326 3.23705 6.92196 3.65901 6.5" stroke="#4B6872" stroke-width="2.5" stroke-linecap="round" stroke-linejoin="round"/>
</svg>
