<svg width="36" height="36" viewBox="0 0 36 36" fill="none" xmlns="http://www.w3.org/2000/svg">
<path d="M28.5752 7.36509C27.2 5.97598 25.562 4.87459 23.7567 4.12517C21.9513 3.37574 20.0149 2.99328 18.0602 3.00009C9.87019 3.00009 3.1952 9.67509 3.1952 17.8651C3.1952 20.4901 3.8852 23.0401 5.1752 25.2901L3.0752 33.0001L10.9502 30.9301C13.1252 32.1151 15.5702 32.7451 18.0602 32.7451C26.2502 32.7451 32.9252 26.0701 32.9252 17.8801C32.9252 13.9051 31.3802 10.1701 28.5752 7.36509ZM18.0602 30.2251C15.8402 30.2251 13.6652 29.6251 11.7602 28.5001L11.3102 28.2301L6.6302 29.4601L7.8752 24.9001L7.5752 24.4351C6.34181 22.4655 5.68691 20.189 5.6852 17.8651C5.6852 11.0551 11.2352 5.50509 18.0452 5.50509C21.3452 5.50509 24.4502 6.79509 26.7752 9.13509C27.9264 10.281 28.8387 11.6441 29.4593 13.1452C30.0798 14.6464 30.3962 16.2558 30.3902 17.8801C30.4202 24.6901 24.8702 30.2251 18.0602 30.2251ZM24.8402 20.9851C24.4652 20.8051 22.6352 19.9051 22.3052 19.7701C21.9602 19.6501 21.7202 19.5901 21.4652 19.9501C21.2102 20.3251 20.5052 21.1651 20.2952 21.4051C20.0852 21.6601 19.8602 21.6901 19.4852 21.4951C19.1102 21.3151 17.9102 20.9101 16.5002 19.6501C15.3902 18.6601 14.6552 17.4451 14.4302 17.0701C14.2202 16.6951 14.4002 16.5001 14.5952 16.3051C14.7602 16.1401 14.9702 15.8701 15.1502 15.6601C15.3302 15.4501 15.4052 15.2851 15.5252 15.0451C15.6452 14.7901 15.5852 14.5801 15.4952 14.4001C15.4052 14.2201 14.6552 12.3901 14.3552 11.6401C14.0552 10.9201 13.7402 11.0101 13.5152 10.9951H12.7952C12.5402 10.9951 12.1502 11.0851 11.8052 11.4601C11.4752 11.8351 10.5152 12.7351 10.5152 14.5651C10.5152 16.3951 11.8502 18.1651 12.0302 18.4051C12.2102 18.6601 14.6552 22.4101 18.3752 24.0151C19.2602 24.4051 19.9502 24.6301 20.4902 24.7951C21.3752 25.0801 22.1852 25.0351 22.8302 24.9451C23.5502 24.8401 25.0352 24.0451 25.3352 23.1751C25.6502 22.3051 25.6502 21.5701 25.5452 21.4051C25.4402 21.2401 25.2152 21.1651 24.8402 20.9851Z" fill="#4B6872"/>
</svg>
